/* XPM */
static char * pov_xpm[] = {
"64 64 671 2",
"  	c None",
". 	c #E2E2E2",
"+ 	c #E4E4E4",
"@ 	c #E7E7E7",
"# 	c #EAEAEA",
"$ 	c #E9E9E9",
"% 	c #E8E8E8",
"& 	c #E5E5E5",
"* 	c #DDDDDD",
"= 	c #D6D6D6",
"- 	c #CFCFCF",
"; 	c #C9C9C9",
"> 	c #E1E1E1",
", 	c #EFEFEF",
"' 	c #F4F4F4",
") 	c #F6F6F6",
"! 	c #F7F7F7",
"~ 	c #F5F5F5",
"{ 	c #F3F3F3",
"] 	c #F1F1F1",
"^ 	c #ECECEC",
"/ 	c #E0E0E0",
"( 	c #D9D9D9",
"_ 	c #D0D0D0",
": 	c #C5C5C5",
"< 	c #B8B8B8",
"[ 	c #F0F0F0",
"} 	c #FAFAFA",
"| 	c #FBFBFB",
"1 	c #FCFCFC",
"2 	c #F9F9F9",
"3 	c #F8F8F8",
"4 	c #F2F2F2",
"5 	c #EEEEEE",
"6 	c #DBDBDB",
"7 	c #D2D2D2",
"8 	c #C6C6C6",
"9 	c #FDFDFD",
"0 	c #FEFEFE",
"a 	c #E8EEF3",
"b 	c #BBD4ED",
"c 	c #B9D4EE",
"d 	c #B8D3ED",
"e 	c #A9C8E8",
"f 	c #B6D0E9",
"g 	c #B5CDE6",
"h 	c #CFDAE6",
"i 	c #E6E6E6",
"j 	c #E3E3E3",
"k 	c #DEDEDE",
"l 	c #D8D8D8",
"m 	c #C2C2C2",
"n 	c #B2B2B2",
"o 	c #F0F6FC",
"p 	c #A5CDF6",
"q 	c #4B9DEF",
"r 	c #1D86EF",
"s 	c #0078F0",
"t 	c #0079F2",
"u 	c #0078F1",
"v 	c #0077EF",
"w 	c #0076EC",
"x 	c #0073E7",
"y 	c #0070E1",
"z 	c #0D73DA",
"A 	c #3685D4",
"B 	c #87B0D9",
"C 	c #C8D3DD",
"D 	c #DFDFDF",
"E 	c #DADADA",
"F 	c #D3D3D3",
"G 	c #A3A3A3",
"H 	c #FFFFFF",
"I 	c #C3DDF7",
"J 	c #5AA6F3",
"K 	c #007CF9",
"L 	c #007DFB",
"M 	c #007DFA",
"N 	c #007CF8",
"O 	c #007BF6",
"P 	c #007AF4",
"Q 	c #0074E9",
"R 	c #0072E4",
"S 	c #006EDD",
"T 	c #0068D1",
"U 	c #347FC9",
"V 	c #AABFD4",
"W 	c #D4D4D4",
"X 	c #CBCBCB",
"Y 	c #BEBEBE",
"Z 	c #A9A9A9",
"` 	c #E1EEFB",
" .	c #3C95EF",
"..	c #007BF7",
"+.	c #007EFC",
"@.	c #007FFE",
"#.	c #0060C1",
"$.	c #004A93",
"%.	c #004284",
"&.	c #004183",
"*.	c #005EBC",
"=.	c #005DBA",
"-.	c #0078EF",
";.	c #0076ED",
">.	c #0075EA",
",.	c #0071E3",
"'.	c #006FDE",
").	c #006BD7",
"!.	c #0065CB",
"~.	c #337AC1",
"{.	c #B2C1CF",
"].	c #BFBFBF",
"^.	c #ACACAC",
"/.	c #929292",
"(.	c #87BCF2",
"_.	c #003468",
":.	c #00162C",
"<.	c #000000",
"[.	c #00152A",
"}.	c #003061",
"|.	c #0060C0",
"1.	c #0070E0",
"2.	c #006EDC",
"3.	c #006BD6",
"4.	c #0066CD",
"5.	c #7197BE",
"6.	c #CACACA",
"7.	c #ADADAD",
"8.	c #0051A3",
"9.	c #000E1D",
"0.	c #323232",
"a.	c #656565",
"b.	c #646464",
"c.	c #4B4B4B",
"d.	c #181818",
"e.	c #001428",
"f.	c #004992",
"g.	c #006FDF",
"h.	c #006CD8",
"i.	c #0069D2",
"j.	c #0064C9",
"k.	c #3E75AD",
"l.	c #C3C7CA",
"m.	c #C8C8C8",
"n.	c #BDBDBD",
"o.	c #ABABAB",
"p.	c #8E8E8E",
"q.	c #2D8CEC",
"r.	c #0057AE",
"s.	c #262626",
"t.	c #7F7F7F",
"u.	c #B1B1B1",
"v.	c #D7D7D7",
"w.	c #D5D5D5",
"x.	c #BABABA",
"y.	c #888888",
"z.	c #3D3D3D",
"A.	c #001A34",
"B.	c #005AB4",
"C.	c #0069D3",
"D.	c #0062C4",
"E.	c #24609C",
"F.	c #CDCDCD",
"G.	c #B9B9B9",
"H.	c #A6A6A6",
"I.	c #DCDCDC",
"J.	c #EDF3F8",
"K.	c #2C82D9",
"L.	c #002A55",
"M.	c #4C4C4C",
"N.	c #D1D1D1",
"O.	c #CCCCCC",
"P.	c #464646",
"Q.	c #00060C",
"R.	c #00458A",
"S.	c #0063C6",
"T.	c #005EBD",
"U.	c #0055AB",
"V.	c #4975A1",
"W.	c #B5B5B5",
"X.	c #A0A0A0",
"Y.	c #818181",
"Z.	c #5191D2",
"`.	c #001429",
" +	c #CECECE",
".+	c #C1C1C1",
"++	c #BBBBBB",
"@+	c #9C9C9C",
"#+	c #212122",
"$+	c #004386",
"%+	c #005FBF",
"&+	c #0059B3",
"*+	c #004E9C",
"=+	c #788FA6",
"-+	c #C7C7C7",
";+	c #AFAFAF",
">+	c #979797",
",+	c #757575",
"'+	c #9BB3CB",
")+	c #001327",
"!+	c #595959",
"~+	c #C0C0C0",
"{+	c #A1ADB8",
"]+	c #7E9DBB",
"^+	c #5E8DBC",
"/+	c #7293B4",
"(+	c #909FAE",
"_+	c #AEAEAE",
":+	c #B4B4B4",
"<+	c #3F4346",
"[+	c #000306",
"}+	c #00478E",
"|+	c #005FBE",
"1+	c #005AB5",
"2+	c #0053A6",
"3+	c #0C4A89",
"4+	c #BEC1C3",
"5+	c #B7B7B7",
"6+	c #A7A7A7",
"7+	c #8B8B8B",
"8+	c #EDEDED",
"9+	c #CCD1D6",
"0+	c #19314A",
"a+	c #93A5B7",
"b+	c #2A7ED3",
"c+	c #0074E8",
"d+	c #1360AC",
"e+	c #72879D",
"f+	c #A5A5A5",
"g+	c #A8A8A8",
"h+	c #3C444B",
"i+	c #00070F",
"j+	c #005BB7",
"k+	c #0054A9",
"l+	c #004993",
"m+	c #5F7B96",
"n+	c #B0B0B0",
"o+	c #9D9D9D",
"p+	c #7C7C7C",
"q+	c #7F8994",
"r+	c #7094B8",
"s+	c #007AF5",
"t+	c #0075EB",
"u+	c #006DDB",
"v+	c #345B83",
"w+	c #939393",
"x+	c #969696",
"y+	c #9A9A9A",
"z+	c #9E9E9E",
"A+	c #1C2B39",
"B+	c #000B17",
"C+	c #002953",
"D+	c #004C98",
"E+	c #0B4176",
"F+	c #BCBDBE",
"G+	c #909090",
"H+	c #6A6A6A",
"I+	c #717171",
"J+	c #7591AD",
"K+	c #0180FE",
"L+	c #017CF8",
"M+	c #0066CC",
"N+	c #00478F",
"O+	c #445C75",
"P+	c #919191",
"Q+	c #898B8E",
"R+	c #00162D",
"S+	c #001225",
"T+	c #0056AD",
"U+	c #0058B0",
"V+	c #0053A7",
"W+	c #003D7B",
"X+	c #8D98A3",
"Y+	c #C4C4C4",
"Z+	c #7D7D7D",
"`+	c #969B9F",
" @	c #0965C0",
".@	c #017DFA",
"+@	c #0B89FE",
"@@	c #1C98FF",
"#@	c #128BFD",
"$@	c #0377EB",
"%@	c #004A95",
"&@	c #003366",
"*@	c #838689",
"=@	c #34495D",
"-@	c #001831",
";@	c #004488",
">@	c #0052A4",
",@	c #004B97",
"'@	c #003F7E",
")@	c #465D74",
"!@	c #A4A4A4",
"~@	c #8D8D8D",
"{@	c #686868",
"]@	c #64829F",
"^@	c #0064C8",
"/@	c #047DF5",
"(@	c #239CFF",
"_@	c #44BBFF",
":@	c #299DFE",
"<@	c #0777E6",
"[@	c #0056AC",
"}@	c #004891",
"|@	c #00356A",
"1@	c #364656",
"2@	c #949494",
"3@	c #67737F",
"4@	c #002244",
"5@	c #00366D",
"6@	c #0050A1",
"7@	c #004A94",
"8@	c #003E7D",
"9@	c #2E4C6A",
"0@	c #AAAAAA",
"a@	c #777777",
"b@	c #2E659C",
"c@	c #006AD5",
"d@	c #0376E8",
"e@	c #188AF8",
"f@	c #299AFC",
"g@	c #1684F0",
"h@	c #036DD6",
"i@	c #0063C5",
"j@	c #003163",
"k@	c #122639",
"l@	c #A2A2A2",
"m@	c #9B9B9B",
"n@	c #989898",
"o@	c #002B57",
"p@	c #002D5B",
"q@	c #0052A5",
"r@	c #003D7A",
"s@	c #0B2B4A",
"t@	c #848484",
"u@	c #5C5C5C",
"v@	c #EBEBEB",
"w@	c #C3C3C3",
"x@	c #1D5792",
"y@	c #0068D0",
"z@	c #006BD5",
"A@	c #046ED9",
"B@	c #066FD8",
"C@	c #0369CF",
"D@	c #0061C2",
"E@	c #003B77",
"F@	c #000F1E",
"G@	c #12406E",
"H@	c #0050A0",
"I@	c #003A74",
"J@	c #001E3C",
"K@	c #696969",
"L@	c #BCBCBC",
"M@	c #1E5184",
"N@	c #005CB8",
"O@	c #0057AF",
"P@	c #0051A2",
"Q@	c #003264",
"R@	c #002142",
"S@	c #255483",
"T@	c #004D9B",
"U@	c #00356B",
"V@	c #767676",
"W@	c #4A4A4A",
"X@	c #B6B6B6",
"Y@	c #2A4F74",
"Z@	c #004387",
"`@	c #0054A8",
" #	c #00468C",
".#	c #003367",
"+#	c #00264C",
"@#	c #121415",
"##	c #094B8C",
"$#	c #00458B",
"%#	c #293A4B",
"&#	c #7E7E7E",
"*#	c #545454",
"=#	c #B3B3B3",
"-#	c #6F7D8B",
";#	c #003F7F",
">#	c #004890",
",#	c #003972",
"'#	c #00254B",
")#	c #00172F",
"!#	c #00050B",
"~#	c #373737",
"{#	c #A2A6AB",
"]#	c #00468D",
"^#	c #004182",
"/#	c #003870",
"(#	c #002952",
"_#	c #3C434B",
":#	c #5E5E5E",
"<#	c #0B2845",
"[#	c #003973",
"}#	c #003871",
"|#	c #002A54",
"1#	c #00152B",
"2#	c #00060D",
"3#	c #7392B1",
"4#	c #004E9D",
"5#	c #004285",
"6#	c #003C78",
"7#	c #001E3D",
"8#	c #6A6B6D",
"9#	c #676767",
"0#	c #787C80",
"a#	c #002143",
"b#	c #00264D",
"c#	c #002850",
"d#	c #00274F",
"e#	c #002449",
"f#	c #001F3F",
"g#	c #001830",
"h#	c #000E1C",
"i#	c #000307",
"j#	c #3B3B3B",
"k#	c #9F9F9F",
"l#	c #2B70B5",
"m#	c #000F1F",
"n#	c #6D6D6D",
"o#	c #3F3F3F",
"p#	c #90A7BE",
"q#	c #454647",
"r#	c #000810",
"s#	c #001224",
"t#	c #000A14",
"u#	c #000408",
"v#	c #8F8F8F",
"w#	c #89A0B7",
"x#	c #0055AA",
"y#	c #003E7C",
"z#	c #00376F",
"A#	c #002E5C",
"B#	c #001D3A",
"C#	c #34373A",
"D#	c #A1A1A1",
"E#	c #424242",
"F#	c #246CB3",
"G#	c #498BCD",
"H#	c #141414",
"I#	c #000001",
"J#	c #080808",
"K#	c #A3A9AE",
"L#	c #1467B9",
"M#	c #003060",
"N#	c #002346",
"O#	c #000C18",
"P#	c #808080",
"Q#	c #999999",
"R#	c #737373",
"S#	c #C3C4C5",
"T#	c #B7B8B9",
"U#	c #B6BFC7",
"V#	c #498FD5",
"W#	c #BEC4CB",
"X#	c #747474",
"Y#	c #434343",
"Z#	c #286FB6",
"`#	c #003C79",
" $	c #00376E",
".$	c #001326",
"+$	c #3A3B3C",
"@$	c #9EA3A7",
"#$	c #ABAFB4",
"$$	c #85A2BE",
"%$	c #006CD9",
"&$	c #1775D3",
"*$	c #91A8C0",
"=$	c #90959A",
"-$	c #306FAE",
";$	c #003A75",
">$	c #002F5E",
",$	c #191B1E",
"'$	c #868686",
")$	c #4D4D4D",
"!$	c #495867",
"~$	c #8693A1",
"{$	c #3C78B3",
"]$	c #0061C3",
"^$	c #1F68B1",
"/$	c #6E89A5",
"($	c #95999D",
"_$	c #959595",
":$	c #818B96",
"<$	c #1A5EA2",
"[$	c #002C59",
"}$	c #002347",
"|$	c #080B0F",
"1$	c #304253",
"2$	c #3C5A78",
"3$	c #B6BCC2",
"4$	c #0C60B4",
"5$	c #005DBB",
"6$	c #113457",
"7$	c #222E3B",
"8$	c #2A2A2A",
"9$	c #878C91",
"0$	c #4C7196",
"a$	c #084888",
"b$	c #003469",
"c$	c #002F5F",
"d$	c #002040",
"e$	c #080B0D",
"f$	c #8C8C8C",
"g$	c #485562",
"h$	c #00274E",
"i$	c #486A8C",
"j$	c #859EB7",
"k$	c #0059B2",
"l$	c #001A35",
"m$	c #2C2C2C",
"n$	c #7F8993",
"o$	c #4B6F92",
"p$	c #084684",
"q$	c #002448",
"r$	c #08090A",
"s$	c #898989",
"t$	c #6E6E6E",
"u$	c #474747",
"v$	c #60656A",
"w$	c #001933",
"x$	c #476582",
"y$	c #234F7C",
"z$	c #003162",
"A$	c #001C38",
"B$	c #001123",
"C$	c #00050A",
"D$	c #212121",
"E$	c #6B6B6B",
"F$	c #9B9B9C",
"G$	c #0C4987",
"H$	c #006AD3",
"I$	c #004D9A",
"J$	c #002E5D",
"K$	c #002C58",
"L$	c #00254A",
"M$	c #001021",
"N$	c #101111",
"O$	c #828282",
"P$	c #BABEC2",
"Q$	c #0067CF",
"R$	c #001C39",
"S$	c #5F5F5F",
"T$	c #313131",
"U$	c #8AA2BA",
"V$	c #000C19",
"W$	c #000D1B",
"X$	c #000A15",
"Y$	c #000409",
"Z$	c #000103",
"`$	c #3A3A3A",
" %	c #575757",
".%	c #252525",
"+%	c #447CB3",
"@%	c #004489",
"#%	c #001932",
"$%	c #6F6F6F",
"%%	c #4E4E4E",
"&%	c #1B1B1B",
"*%	c #1667B9",
"=%	c #004C99",
"-%	c #101010",
";%	c #A3B0BD",
">%	c #191919",
",%	c #797979",
"'%	c #5D5D5D",
")%	c #343434",
"!%	c #779ABD",
"~%	c #001D3B",
"{%	c #000205",
"]%	c #505050",
"^%	c #7B7B7B",
"/%	c #3C7CBD",
"(%	c #0062C5",
"_%	c #414141",
":%	c #005CB9",
"<%	c #19191A",
"[%	c #8A8A8A",
"}%	c #565656",
"|%	c #2E2E2E",
"1%	c #040404",
"2%	c #90A7BF",
"3%	c #0063C7",
"4%	c #004080",
"5%	c #090D11",
"6%	c #666666",
"7%	c #171717",
"8%	c #5488BB",
"9%	c #727272",
"0%	c #060606",
"a%	c #2472C1",
"b%	c #001B37",
"c%	c #252627",
"d%	c #636363",
"e%	c #444444",
"f%	c #B4BDC6",
"g%	c #0065CA",
"h%	c #002B56",
"i%	c #091016",
"j%	c #838383",
"k%	c #515151",
"l%	c #2D2D2D",
"m%	c #050505",
"n%	c #84A3C2",
"o%	c #006AD4",
"p%	c #0067CE",
"q%	c #5B5B5B",
"r%	c #3C7DBF",
"s%	c #333536",
"t%	c #626262",
"u%	c #1F1F1F",
"v%	c #010101",
"w%	c #585858",
"x%	c #0C69C7",
"y%	c #0A131C",
"z%	c #2B2B2B",
"A%	c #A8B7C7",
"B%	c #0B0B0B",
"C%	c #3C3C3C",
"D%	c #616161",
"E%	c #6B97C3",
"F%	c #424548",
"G%	c #535353",
"H%	c #363636",
"I%	c #111111",
"J%	c #3E3E3E",
"K%	c #2273C4",
"L%	c #172533",
"M%	c #383838",
"N%	c #858585",
"O%	c #AAAFB3",
"P%	c #0058B1",
"Q%	c #949495",
"R%	c #787878",
"S%	c #7692AE",
"T%	c #4B5156",
"U%	c #3575B6",
"V%	c #1D344B",
"W%	c #878787",
"X%	c #7A7A7A",
"Y%	c #0C0C0C",
"Z%	c #0F6AC4",
"`%	c #7A7B7C",
" &	c #707070",
".&	c #4F4F4F",
"+&	c #484848",
"@&	c #4B5B6A",
"#&	c #005BB6",
"$&	c #38424D",
"%&	c #1A456F",
"&&	c #0B3763",
"*&	c #606060",
"=&	c #525252",
"-&	c #303030",
";&	c #13161A",
">&	c #5A5A5A",
",&	c #070707",
"'&	c #202020",
")&	c #494949",
"!&	c #555555",
"~&	c #222222",
"{&	c #0E0E0E",
"]&	c #242424",
"^&	c #333333",
"/&	c #454545",
"(&	c #272727",
"_&	c #1C1C1C",
":&	c #131313",
"<&	c #151515",
"[&	c #0D0D0D",
"                                                                                                                                ",
"                                                  . + @ # # # $ % & . * = - ;                                                   ",
"                                          > $ , ' ) ! ! ! ) ~ ' { ] , ^ $ & / ( _ : <                                           ",
"                                      @ [ ! } | 1 1 | } 2 3 ! ) ' { 4 [ 5 ^ $ & > 6 7 8 <                                       ",
"                                  $ { 2 1 9 0 9 1 1 | } } 2 3 a b c d e f g h $ i j k l - m n                                   ",
"                              j ] 2 9 0 0 0 9 0 0 0 0 o p q r s t t u v w x y z A B C D E F ; < G                               ",
"                            # ! 1 0 0 0 0 0 H H H I J t K L L M K N O P t v w Q R S T U V E W X Y Z                             ",
"                        k , 2 9 0 0 0 0 H H H `  ...+.@.@.#.#.$.%.&.*.=.t -.;.>.x ,.'.).!.~.{.F X ].^./.                        ",
"                      > ] } 9 9 9 0 H H H H (.t +.T _.:.<.<.<.<.<.<.<.<.<.[.}.|.x R 1.2.3.4.=.5.7 6.].7./.                      ",
"                    / 4 2 1 1 9 0 H H H o q ..8.9.<.<.<.0.0.a.b.b.c.0.d.<.<.<.<.e.f.g.2.h.i.j.=.k.l.m.n.o.p.                    ",
"                  k ] 3 | | 9 H H H H o q.r.9.<.s.t.u.v.v.= = w.w.W W F x.y.z.<.<.<.A.B.).C.4.D.B.E.F.: G.H.y.                  ",
"                I.5 ! } } 1 H H H H J.K.L.<.M.n l v.v.= = w.W F N._ F.O.X 6.; n P.<.<.Q.R.i.4.S.T.U.V.6.m W.X.Y.                ",
"              w.# ~ 3 2 | 0 H H 0 { Z.`.s.n l v.v.v.= w.F N. +6.: .+n.++x.G.G.x.++@+#+<.<.$+!.S.%+&+*+=+-+n.;+>+,+              ",
"              + 4 ) ! 2 0 H H 9 ^ '+)+!+l v.v.v.= w.W _ O.8 ~+++{+]+^+/+(+7._+_+;+u.:+<+[+<.}+D.|+1+2+3+4+m 5+6+7+              ",
"            6 8+' ) ) 9 H H 1 @ 9+0+7+v.v.v.= = W 7 F.8 ].< a+b+c+w c+2.j.d+e+X.G f+g+o.h+i+i+j+T.1+k+l+m+8 n.n+o+p+            ",
"          _ @ ] ' ' 2 0 H | i l q+7+v.= = = w.F _ ; m x.u.r+,.s+L M s+t+u+S.2+v+w+x+y+z+G A+B+C+=.&+k+D+E+F+.+5+6+G+H+          ",
"          * ^ ] 4 ' 1 H | @ l v.I+= = = w.w.7  +-+].W.o.J+u+t L @.K+L+;.g.M+&+N+O+P+P+/.x+Q+R+S+T+U+V+D+W+X+Y+++;+@+Z+          ",
"        _ & 5 ] ] ) 0 1 # l = = = = w.w.w.7 F.8 n.n 6+`+ @,.t .@+@@@#@$@u+j.&+%@&@*@w+/./.w+=@-@;@T+>@,@'@)@: Y :+!@~@{@        ",
"        ( $ 5 , [ ! | 5 E = = w.w.w.w.W F  +8 n.n+H.z+]@^@g.t+/@(@_@:@<@i.#.[@}@|@1@y+>+x+2@3@4@5@k+6@7@8@9@Y+.+< 0@>+a@        ",
"      ; / # 8+8+] ) ] k w.w.w.w.W W W F _ m.~+:+g+G z+b@#.c@1.d@e@f@g@h@i@1+6@$+j@k@l@z+m@n@x+o@p@q@*+N+r@s@~+~+x.;+z+t@u@      ",
"      N.j # v@^ [ ] & = W W W W W F F N.6.w@< _+H.l@G x@&+S.y@z@A@B@C@D@1+q@}@E@L.F@!@!@l@z+m@G@_.H@,@R.I@J@n.~+++n G ~@K@      ",
"    L@v.+ $ # v@5 $ E W W W F F F F 7  +8 Y W.^.6+6+o.M@H@&+T.#.D@%+N@O@P@f.'@Q@R@i+!@6+6+f+X.S@r@T@}@&.U@-@G.L@L@:+6+w+V@W@    ",
"    w@6 + % % $ # > W F F F F F 7 7 N.X Y+L@X@^.^.;+n Y@Z@T@2+U.U.`@P@D+ #W+.#+#e.@#G 6+0@Z H.##$#%@R.W+}.%#:+G.++W.0@n@&#*#    ",
"    ; I.+ i i @ & E F F F 7 7 7 7 7 _ 6.Y+L@X@u.=#5+x.-#.#;#$#>#}@N+;@;#,#}.'#)#!#~#!@0@^._+{#,@f.]#^#/#(#_#;+W.G.X@^.@+t@:#    ",
"    F.I.j + + & / w.7 7 7 7 7 7 N.N._ 6.Y+.+L@G.n.~+Y+F+<#p@|@,#[#}#U@}.|#R@1#2#<.,+G o.;+u.3#4#N+5#6#j@7#8#7.n+X@W.7.z+y.9#    ",
"  =#- I.> . . . 6 7 7 7 N.N.N.N.N.N.- ; 8 : .+~+Y+; 6.F.0#:.a#b#c#d#e#f#g#h#i#<.j#>+k#0@n+:+l#%@$+W+U@C+m#x+0@n+:+W._+X.7+n#o#  ",
"  W._ 6 / > / D v.N.N.N.N.N.N.N.N._  +X 6.X m.-+X p# +- O.q#r#F@s#s#m#t#u#<.<.0.v#2@o+6+_+w#x#$+y#z#A#B#C#@+g+7.n :+;+D#~@I+E#  ",
"  5+_ E k D k I.W N.N.N.N._ _ _ _ _ -  + + +F.O. +F#G#- X n.Z+H#I#I#<.<.<.J#*#v#v#/.m@g+K#L#$+W+/#M#N#O#P#Q#6+7.n+:+_+l@p.R#P.  ",
"  < - l I.* I.( 7 _ _ _ _ _ _ _ S#T#- - - - - - U#N@C.V#W#n.u.H.X#M.Y#Y#a.v#v#v#v#G+Q#f+Z#$#`# $M#'#.$+$P+Q#6+_+;+=#;+l@v#X#c.  ",
"  < F.v.6 6 E v.N._ _ _ _ _ _ - - @$#$- - - - - $$D.3.%$&$*$=#g+y+P+v#v#v#v#v#v#v#P+=$-$Z@;$U@>$'#:.,$'$P+y+6+7.n+=#_+l@p.X#)$  ",
"  5+X w.( E ( = _ _ _ - - - - - - - !$~$- -  + +{$M+h.h.y@]$^$/$($_$G+v#v#v#v#v#v#:$<$W+/#&@[$}$1#|$,+v#/.@+6+_+u.n _+D#~@R#M.  ",
"  W.; 7 v.l v.W _ - - - - - - - - - - 1$2$3$ + +4$i.%$z@!.5$V+}+}#6$7$8$V@v#v#9$0$a$}#b$c$(#d$s#e$,+v#v#w+z+g+n+=#:+7.X.f$I+c.  ",
"  u.8 _ w.= = F - - - - - - - -  + + +m g$h$i$j$|.3.h.i.D.k$T@;#>$l$u#m$P+n$o$p$ $.#c$L.q$l$O#r$,+v#v#G+_$D#0@u.:+:+^.z+s$t$u$  ",
"  7.m F.F w.w.F - - - - -  + + + + + +F.O.v$w$L.q@h.).4.*.V+]#5@}$B+[+x$y$I@_.z$p@(#}$A$B$C$D$'$v#v#v#/.y+G ^.:+5+=#o.m@'$E$E#  ",
"  6+Y 6._ F F 7 -  + + + + + + + + + +F.X 6.F$G$T %$H$S.&+I$y#J$[$M#j@M#A#K$(#L$d$w$M$Q.N$u@v#v#v#v#G+x+z+6+;+5+< :+g+n@O$a.j#  ",
"  k#G.8 F.N.7 N.-  + + + + + + + + + +F.; 8 P$=.3.h.Q$|+V+$#_.f#'#L$q$4@f#R$)#B$t#[+N$*#'$v#v#v#v#G+w+y+G ^.=#x.G.n f+2@Z+S$T$  ",
"  _$=#m 6.- N.N.-  + + + + + + + + +F.O.m.: U$^@h.c@^@B.I$`#c#h#V$W$V$X$i+Y$Z$N$`$n#v#v#v#v#v#v#G+/.n@k#6+u.G.n.G.n+D#v#a@ %.%  ",
"  f$^.n.-+O.- _ -  + + + + + +F.F.F.F.X -+: +%y@h.T |.`@@%j@#%Z$Y#Y#Y#c.u@n#'$v#v#v#v#v#v#v#v#G+w+n@z+H._+5+Y ].< ^.o+s$$%%%&%  ",
"  O$!@5+m ; F.- -  + +F.F.F.F.F.F.F.F.O.m.Y+*%c@).!.1+=%;$}$i+`$v#v#v#v#v#v#v#v#v#v#v#v#v#v#P+2@n@o+!@7.X@++~+Y W.g+>+O$9#E#-%  ",
"    Q#n+n.: 6.F. + +F.F.F.F.F.F.F.F.F.F.X ;%D.h.C.D@`@$+p@B$>%v#v#v#v#v#v#v#v#v#v#v#p.v#G+w+_$y+k#f+^.W.++~+Y+n.n G G+,%'%)%    ",
"    7+g+5+.+-+X F.F.F.F.F.F.F.F.F.F.F.F.O.!%Q$h.4.j+D+/#~%{%,+v#v#v#v#v#v#v#v#v#v#G+P+w+x+Q#o+l@g+_+W.++~+Y+w@G.^.@+y.$%]%D$    ",
"    ^%o+n+++w@m.X F.F.F.F.F.F.F.F.F.F.F.F./%c@c@(%k+&.C+t#c.v#v#v#v#G+G+G+/./.w+w+x+Q#m@z+G H.o.u.X@L@~+Y+m..+W.H.2@&#b._%-%    ",
"    H+G+H.W.Y Y+; X F.F.F.F.F.F.F.F.F.F.F.|+h.y@:%,@b$:.<%v#v#v#v#P+w+_$x+y+o+o+X.X.l@!@g+o._+:+5+L@~+: m.8 L@_+o+[%R#}%|%1%    ",
"      Z+m@^.< ~+: ; X F.F.F.F.F.F.F.F.O.2%4.).3%x#4%}$5%P#v#v#v#P+2@n@m@z+G f+g+g+0@o.7.;+n 5+x.].w@8 m.6.m W.f+2@t.6%P.7%      ",
"      H+~@l@n+x..+8 ; O.F.F.F.F.O.O.O.O.8%c@C.5$%@}.W$!+G+v#v#G+2@Q#o+X.H.Z 7._+;+;+n :+X@x.Y .+Y+m.6.X -+x.^.@+s$9% %0.0%      ",
"        ,%_$H.n ++.+8 6.O.O.O.O.O.O.O.O.a%).!.x#W+b%c%>+v#v#v#/.n@o+X.6+7.n+:+W.X@5+x.n..+m 8 m.; 6.X ; ].u.l@G+p+d%e%d.        ",
"        d%t@y+Z =#++m 8 6.O.O.O.O.O.O.f%g%c@|+7@h%i%p.2@v#v#P+>+@+G Z ;+:+++Y ].m w@w@8 -+m.6.X X X X m W.6+x+j%n#k%l%m%        ",
"          n#7+o+0@:+++.+8 6.O.O.O.O.O.n%o%p%U.I@S+a@z+/.v#G+2@y+l@Z u.5+n.m 8 m.; 6.6.6.X X X X X X Y+< o.m@s$X#q%j#-%          ",
"          k%V@p.z+0@:+++.+8 6.O.O.O.O.r%3.#.}@}$s%6+m@G+G+/.Q#k#H.n+< Y Y+m.X X X X X X X X X X X : x.7.z+~@,%t%P.u%v%          ",
"            w%^%v#z+0@=#x.~+: 6.O.O.O.x%i.T+U@y%f+f+>+G+P+>+o+!@7.5+L@m -+6.X X X X X X X X X X : x._+k#v#Z+9#)$z%m%            ",
"              :#p+v#o+g+u.< ].Y+; O.A%C.(%}+#%t.7.D#2@G+_$y+l@0@W.L@m 8 6.X X X X X X X X X X Y+G.7.k#G+&#H+k%0.B%              ",
"              C%D%p+~@m@H._+X@L@m -+E%o%O@J$F%=#0@k#w+2@n@X.g+n x.~+: ; X X X X X X X X X ; .+5+o.z+v#&#H+G%H%I%<.              ",
"                J%D%,%[%>+l@o.n G.].K%g%@%L%u.u.6+@+2@n@z+H._+< Y Y+; X X X X X X X X 6.8 n.=#g+m@~@p+K@G%M%H#<.                ",
"                  `$'%X#N%/.o+H._+O%Q$P%q$Q%G._+f+m@>+@+!@7.W.n.w@-+6.X X X X X X 6.-+~+5+_+G x+y.R%6%]%H%H#<.                  ",
"                    )%}%t$t.f$>+X.S%p%4%T%5+_+Z l@m@y+l@0@=#L@.+-+6.X X X X X ; : ].< n+H.@+G+O$R#D%M.0.I%<.                    ",
"                      l%M.a.V@j%p.U%B.V%D#6+D#o+n@_$y+f+;+< ~+8 m.6.6.; -+Y+~+++W._+H.o+w+W%X%E$!+e%8$Y%<.                      ",
"                        u%J%w%E$R%Z%z#`%y+Q#w+/.v#~@_$k#Z n < n.Y Y L@x.5+=#;+Z G m@/.y.Z+ &D%.&`$u%m%<.                        ",
"                            z%+&@&#&$&P#'$'$t@t@j%N%7+x+k#f+0@7._+7.o.g+f+X.m@_$~@N%^% &d%G%E#m$I%v%                            ",
"                              7%%&&&!+6%t$ &I+X#,+V@t.y.G+_$Q#m@y+Q#x+w+v#[%t@Z+,+E$*&=&Y#-&>%m%<.                              ",
"                                P@;&|%E#.&}%>&S$d%6%n#,+^%P#j%t@j%Y.&#X%V@ &K@D% %c.J%l%>%,&<.                                  ",
"                                      I%'&T$j#e%)&%%!&q%D%6%{@{@9#a.D%'% %]%+&J%0.~&I%1%<.                                      ",
"                                          0%{&d.]&l%^&`$o#Y#/&/&e%_%z.M%T$(&_&-%0%<.<.                                          ",
"                                                  1%J#B%-%:&<&<&H#I%[&J#1%v%<.                                                  ",
"                                                                                                                                "};
