/* XPM */
static char * snapshot_xpm[] = {
"32 32 340 2",
"  	c None",
". 	c #000000",
"+ 	c #C6C6C6",
"@ 	c #F4F4F4",
"# 	c #FAFAFA",
"$ 	c #FDFDFD",
"% 	c #EFEFEF",
"& 	c #AFAFAF",
"* 	c #C4C4C4",
"= 	c #ECECEC",
"- 	c #F7F7F7",
"; 	c #F6F6F6",
"> 	c #EAEAEA",
", 	c #7D7D7D",
"' 	c #7F7F7F",
") 	c #808080",
"! 	c #787878",
"~ 	c #333333",
"{ 	c #414141",
"] 	c #424242",
"^ 	c #353535",
"/ 	c #060606",
"( 	c #1D1D1D",
"_ 	c #070707",
": 	c #5A5A5A",
"< 	c #656565",
"[ 	c #666666",
"} 	c #646464",
"| 	c #454545",
"1 	c #272726",
"2 	c #5A5959",
"3 	c #757575",
"4 	c #8F8F8F",
"5 	c #737373",
"6 	c #484848",
"7 	c #0F0F0F",
"8 	c #585858",
"9 	c #4C4C4C",
"0 	c #4F4F4F",
"a 	c #707070",
"b 	c #9B9B9B",
"c 	c #AAAAAA",
"d 	c #B5B5B5",
"e 	c #B2B2B2",
"f 	c #919191",
"g 	c #505050",
"h 	c #3D3D3D",
"i 	c #1E1E1E",
"j 	c #1F1F1F",
"k 	c #6B6A68",
"l 	c #646361",
"m 	c #676563",
"n 	c #6A6967",
"o 	c #737270",
"p 	c #A3A3A3",
"q 	c #E5E5E5",
"r 	c #E0E0E0",
"s 	c #7C7C7C",
"t 	c #ADADAD",
"u 	c #8B8B8B",
"v 	c #8A8A8A",
"w 	c #848484",
"x 	c #868686",
"y 	c #9A9A9A",
"z 	c #6F6F6F",
"A 	c #171717",
"B 	c #63625E",
"C 	c #6F6F6D",
"D 	c #7C7B79",
"E 	c #61605E",
"F 	c #595959",
"G 	c #323232",
"H 	c #555453",
"I 	c #767572",
"J 	c #E6E6E6",
"K 	c #DEDEDE",
"L 	c #838383",
"M 	c #A2A2A2",
"N 	c #908F8F",
"O 	c #818080",
"P 	c #7A7A78",
"Q 	c #6D6C6B",
"R 	c #727170",
"S 	c #767675",
"T 	c #6C6C6C",
"U 	c #B1AFAC",
"V 	c #868582",
"W 	c #81807C",
"X 	c #6F6E6B",
"Y 	c #6F6E6C",
"Z 	c #4E4D4C",
"` 	c #80807E",
" .	c #666562",
"..	c #404040",
"+.	c #626262",
"@.	c #525252",
"#.	c #91908E",
"$.	c #727270",
"%.	c #767775",
"&.	c #696A69",
"*.	c #515352",
"=.	c #585958",
"-.	c #636562",
";.	c #5F605D",
">.	c #828281",
",.	c #727272",
"'.	c #696969",
").	c #6E6E6E",
"!.	c #888781",
"~.	c #B5B4B2",
"{.	c #B2B2B0",
"].	c #C2C1BF",
"^.	c #C7C7C6",
"/.	c #B7B7B6",
"(.	c #605F5D",
"_.	c #222220",
":.	c #4A4A4A",
"<.	c #777777",
"[.	c #B4B3B3",
"}.	c #80807F",
"|.	c #686B68",
"1.	c #5B5F5D",
"2.	c #5F6262",
"3.	c #5D6161",
"4.	c #525656",
"5.	c #4A4E4B",
"6.	c #3E423D",
"7.	c #51534F",
"8.	c #686967",
"9.	c #6A6A6A",
"0.	c #828077",
"a.	c #7F7D74",
"b.	c #747168",
"c.	c #6C6A62",
"d.	c #615E57",
"e.	c #57554F",
"f.	c #3F3D39",
"g.	c #242320",
"h.	c #9E9E9E",
"i.	c #929392",
"j.	c #5C5F5F",
"k.	c #626665",
"l.	c #4A4E50",
"m.	c #424849",
"n.	c #43484A",
"o.	c #42474A",
"p.	c #3E4345",
"q.	c #363A3A",
"r.	c #2F332E",
"s.	c #2F322C",
"t.	c #3A3D38",
"u.	c #6A6968",
"v.	c #827F77",
"w.	c #807D75",
"x.	c #6D6A63",
"y.	c #615F58",
"z.	c #403F3B",
"A.	c #2E2C2A",
"B.	c #4B4B4B",
"C.	c #6D6D6D",
"D.	c #797979",
"E.	c #949392",
"F.	c #616565",
"G.	c #585D5D",
"H.	c #3F4444",
"I.	c #565957",
"J.	c #5C5F5E",
"K.	c #4D5153",
"L.	c #474C4D",
"M.	c #54585A",
"N.	c #515456",
"O.	c #3B4041",
"P.	c #2C2F2A",
"Q.	c #2A2A23",
"R.	c #53524F",
"S.	c #7A7A7A",
"T.	c #817E75",
"U.	c #7F7C74",
"V.	c #737068",
"W.	c #6D6A62",
"X.	c #403E39",
"Y.	c #2F2E2B",
"Z.	c #747474",
"`.	c #7B7D7D",
" +	c #515657",
".+	c #444847",
"++	c #606262",
"@+	c #353939",
"#+	c #101111",
"$+	c #090909",
"%+	c #151717",
"&+	c #444647",
"*+	c #535657",
"=+	c #373C3E",
"-+	c #2B2C28",
";+	c #383630",
">+	c #706F6F",
",+	c #737067",
"'+	c #57544E",
")+	c #626464",
"!+	c #727677",
"~+	c #383B39",
"{+	c #343434",
"]+	c #464646",
"^+	c #313131",
"/+	c #1D1E1E",
"(+	c #383C3C",
"_+	c #44494C",
":+	c #313534",
"<+	c #2A2922",
"[+	c #6E6D6B",
"}+	c #7F7D75",
"|+	c #7E7B73",
"1+	c #605E57",
"2+	c #55544D",
"3+	c #403D39",
"4+	c #2E2E2A",
"5+	c #494949",
"6+	c #5F6061",
"7+	c #404647",
"8+	c #484C4C",
"9+	c #4C5051",
"0+	c #2C2D2B",
"a+	c #A9A9A9",
"b+	c #3F3F3F",
"c+	c #292B2B",
"d+	c #484D50",
"e+	c #42494B",
"f+	c #1C1C17",
"g+	c #4E4D4B",
"h+	c #717171",
"i+	c #726F67",
"j+	c #6C6961",
"k+	c #55534D",
"l+	c #3F3D38",
"m+	c #676868",
"n+	c #393E3F",
"o+	c #535756",
"p+	c #464A47",
"q+	c #242423",
"r+	c #F3F3F3",
"s+	c #444444",
"t+	c #474C4F",
"u+	c #484E51",
"v+	c #1D1D1A",
"w+	c #51504E",
"x+	c #7D7A73",
"y+	c #6B6861",
"z+	c #605D57",
"A+	c #3E3D38",
"B+	c #2E2D2A",
"C+	c #646565",
"D+	c #373B3C",
"E+	c #4C5253",
"F+	c #3A3E3A",
"G+	c #080807",
"H+	c #434343",
"I+	c #7B7B7B",
"J+	c #545454",
"K+	c #3C3C3C",
"L+	c #494E51",
"M+	c #484D51",
"N+	c #242523",
"O+	c #6D6D6B",
"P+	c #7D7A72",
"Q+	c #716F67",
"R+	c #5F5D56",
"S+	c #54524C",
"T+	c #3E3C38",
"U+	c #69696A",
"V+	c #394143",
"W+	c #333837",
"X+	c #111210",
"Y+	c #939393",
"Z+	c #404141",
"`+	c #434A4D",
" @	c #3F4649",
".@	c #2D2F2E",
"+@	c #737372",
"@@	c #7E7B74",
"#@	c #716E66",
"$@	c #6A6860",
"%@	c #5E5C56",
"&@	c #53514C",
"*@	c #3E3C37",
"=@	c #6E6F6E",
"-@	c #2F3132",
";@	c #363E3E",
">@	c #3B4346",
",@	c #252926",
"'@	c #1B1C1B",
")@	c #464647",
"!@	c #4D4F52",
"~@	c #3B4247",
"{@	c #303538",
"]@	c #444545",
"^@	c #4E4E4E",
"/@	c #111111",
"(@	c #4E4C4A",
"_@	c #7B7871",
":@	c #6F6D65",
"<@	c #6A6760",
"[@	c #605D56",
"}@	c #54514C",
"|@	c #393733",
"1@	c #121313",
"2@	c #343A3B",
"3@	c #3B4347",
"4@	c #3E4443",
"5@	c #2A2E2D",
"6@	c #272828",
"7@	c #3B3B3B",
"8@	c #3C3E3E",
"9@	c #464A4D",
"0@	c #464C4F",
"a@	c #3D4247",
"b@	c #080808",
"c@	c #030302",
"d@	c #010101",
"e@	c #0F1011",
"f@	c #5A5D5E",
"g@	c #525657",
"h@	c #3C4143",
"i@	c #393E42",
"j@	c #3F4548",
"k@	c #484C4F",
"l@	c #5B5D5F",
"m@	c #55595B",
"n@	c #0C0D0E",
"o@	c #040505",
"p@	c #101214",
"q@	c #494E52",
"r@	c #42494D",
"s@	c #42484C",
"t@	c #5A5E60",
"u@	c #4B4F52",
"v@	c #4E5255",
"w@	c #090A0B",
"x@	c #1C1F21",
"y@	c #0E0F0F",
"                                                                ",
"                                                                ",
"                                                                ",
"                                . . . . . . .                   ",
"                              . + @ # $ # % & .                 ",
"                              . * = - # ; > & .                 ",
"                              . , ' ) ) ) ) ! .                 ",
"                              . ~ {       ] ^ .                 ",
"                            / . (           ( .                 ",
"                            _ . : < [ [ [ } | . .               ",
"                        . . 1 2 3 4 4 4 4 4 5 6 7 . . .         ",
"          . . . . . . 8 9 0 a b c d d d d d e f g 9 h i j       ",
"  . . . . k l m n o p < q r s t u v w w w w x y ! z s 5 6 A     ",
"  . B C D E F G H I 4 : J K L M u N O P Q R S w u T ! ' a .     ",
"  . U V W X Y Z `  ...+.@.[ e f #.$.%.&.*.=.-.;.>.,.'.+.)..     ",
"  . !.~.{.].^./.(._.:.5 '.<.[.}.|.1.2.3.4.4.5.6.7.8.9.' ' .     ",
"  . 0.a.b.c.d.e.f.g.9 3 a h.i.j.k.l.m.n.o.p.q.r.s.t.u., ) .     ",
"  . v.w.b.x.y.e.z.A.B.C.D.E.F.G.H.I.J.K.L.M.N.O.P.Q.R.S.' .     ",
"  . T.U.V.W.y.e.X.Y.B.Z.Z.`. +.+++@+#+/ $+%+&+*+=+-+;+>+S..     ",
"  . w.U.,+c.y.'+X.Y.B.Z.)+!+H.J.~+{+]+^+j j /+(+_+:+<+[+) .     ",
"  . }+|+V.c.1+2+3+4+5+).6+7+8+9+0+a+) M 0 b+^+c+d+e+f+g+h+.     ",
"  . a.|+i+j+1+k+l+4+5+T m+n+o+p+q+T M r+f } s+^+t+u+v+w+T .     ",
"  . U.x+i+y+z+k+A+B+6 ,.C+D+E+F+G+H+D.b M I+J+K+L+M+N+O+Z..     ",
"  . |+P+Q+y+R+S+T+B+:.3 U+D+V+W+X+j b+} I+a Y+Z+`+ @.@+@a .     ",
"  . @@P+#@$@%@&@*@B+6 <.=@-@;@>@,@'@^+s+J+J+)@!@~@{@]@3 ^@/@    ",
"  . (@_@:@<@[@}@|@. . . . 1@2@3@4@5@6@^+7@8@9@0@a@. . . b@      ",
"    . . . . . . . c@.     d@e@. f@g@h@i@j@k@l@m@. n@            ",
"                            o@p@. q@r@s@t@u@v@. e@              ",
"                                w@x@. . . . y@                  ",
"                                                                ",
"                                                                ",
"                                                                "};
