/* XPM */
static char * graphics_xpm[] = {
"48 48 555 2",
"  	c None",
". 	c #000000",
"+ 	c #2D2D2D",
"@ 	c #707070",
"# 	c #060606",
"$ 	c #2B2B2B",
"% 	c #6A6A6A",
"& 	c #757575",
"* 	c #5B5B5B",
"= 	c #8D8D8D",
"- 	c #202020",
"; 	c #4E4E4E",
"> 	c #919191",
", 	c #5C5C5C",
"' 	c #484848",
") 	c #8F8F8F",
"! 	c #0A0A0A",
"~ 	c #303030",
"{ 	c #9C9C9C",
"] 	c #8B8B8B",
"^ 	c #404040",
"/ 	c #282828",
"( 	c #9D9D9D",
"_ 	c #848484",
": 	c #7A7A7A",
"< 	c #131313",
"[ 	c #A3A3A3",
"} 	c #7D7D7D",
"| 	c #9A9A9A",
"1 	c #151515",
"2 	c #999999",
"3 	c #8A8A8A",
"4 	c #929292",
"5 	c #4C4C4C",
"6 	c #838383",
"7 	c #616161",
"8 	c #AAAAAA",
"9 	c #A1A1A1",
"0 	c #3F3F3F",
"a 	c #BDBDBD",
"b 	c #1B1B1B",
"c 	c #D4D4D4",
"d 	c #767676",
"e 	c #939393",
"f 	c #6F6F6F",
"g 	c #684B05",
"h 	c #DAA209",
"i 	c #E5AF06",
"j 	c #C19703",
"k 	c #2D2400",
"l 	c #0F0B00",
"m 	c #1D190E",
"n 	c #BABABA",
"o 	c #9B9B9B",
"p 	c #281D01",
"q 	c #DDA608",
"r 	c #E8B305",
"s 	c #F1BC03",
"t 	c #7B6101",
"u 	c #3B2C00",
"v 	c #CD9706",
"w 	c #332402",
"x 	c #B0B0B0",
"y 	c #1F1F1F",
"z 	c #D29F07",
"A 	c #EAB505",
"B 	c #F2BE03",
"C 	c #4D3D00",
"D 	c #3C2D04",
"E 	c #795B09",
"F 	c #B5890D",
"G 	c #E2AB10",
"H 	c #F2B712",
"I 	c #D3A00F",
"J 	c #987409",
"K 	c #2E2302",
"L 	c #584300",
"M 	c #DCA206",
"N 	c #C3880F",
"O 	c #614407",
"P 	c #5A5A5A",
"Q 	c #C8C8C8",
"R 	c #4A4A4A",
"S 	c #9C7704",
"T 	c #ECB704",
"U 	c #F3C002",
"V 	c #3D2F02",
"W 	c #7A5D07",
"X 	c #F3B910",
"Y 	c #F5BD0D",
"Z 	c #AA8406",
"` 	c #211A01",
" .	c #E4AA03",
"..	c #92660B",
"+.	c #252525",
"@.	c #EBEBEB",
"#.	c #737373",
"$.	c #65500A",
"%.	c #EEBE11",
"&.	c #F4C102",
"*.	c #F9C701",
"=.	c #BD9800",
"-.	c #BF9900",
";.	c #BE9800",
">.	c #DCAE04",
",.	c #F9C307",
"'.	c #F6BF0B",
").	c #F4BA0E",
"!.	c #F2B711",
"~.	c #E3AF1E",
"{.	c #5C6D8A",
"].	c #3156C2",
"^.	c #0E46D7",
"/.	c #134AC7",
"(.	c #4D6696",
"_.	c #A7934D",
":.	c #F5BC0D",
"<.	c #F7C00A",
"[.	c #EAB806",
"}.	c #2F2500",
"|.	c #CE9C00",
"1.	c #CA900C",
"2.	c #121212",
"3.	c #CBCBCB",
"4.	c #959595",
"5.	c #2D2B14",
"6.	c #F1E044",
"7.	c #EDD916",
"8.	c #EFD201",
"9.	c #F6CF00",
"0.	c #FDCD00",
"a.	c #FECB01",
"b.	c #FBC704",
"c.	c #F9C308",
"d.	c #F6BE0B",
"e.	c #F4BA0F",
"f.	c #C5A136",
"g.	c #2450CF",
"h.	c #475AF1",
"i.	c #194ADC",
"j.	c #0342D3",
"k.	c #4161A2",
"l.	c #D8B023",
"m.	c #FAC406",
"n.	c #FCC803",
"o.	c #2F2600",
"p.	c #674E00",
"q.	c #DFA505",
"r.	c #302203",
"s.	c #A0A0A0",
"t.	c #B5B5B5",
"u.	c #2C2800",
"v.	c #938500",
"w.	c #ECD600",
"x.	c #EFD60B",
"y.	c #FBCF0A",
"z.	c #4B63A8",
"A.	c #5F63FC",
"B.	c #3955EB",
"C.	c #0442D3",
"D.	c #0B45D6",
"E.	c #204FCC",
"F.	c #CBAC2C",
"G.	c #FCC903",
"H.	c #EEBF00",
"I.	c #221B00",
"J.	c #BF9100",
"K.	c #D79D08",
"L.	c #5E5E5E",
"M.	c #D8D8D8",
"N.	c #DECA0C",
"O.	c #F2E043",
"P.	c #FBCC12",
"Q.	c #F9C407",
"R.	c #F4BC0E",
"S.	c #F2B811",
"T.	c #3454E9",
"U.	c #6666FF",
"V.	c #5660F8",
"W.	c #1F4CDF",
"X.	c #0743D5",
"Y.	c #0C45D7",
"Z.	c #224DE1",
"`.	c #4B5CF3",
" +	c #3459C1",
".+	c #FDC902",
"++	c #FECC00",
"@+	c #BE9900",
"#+	c #ECB301",
"$+	c #FDFDFD",
"%+	c #3B370B",
"&+	c #F2E45B",
"*+	c #FBCF1A",
"=+	c #FAC506",
"-+	c #F8C109",
";+	c #F5BD0C",
">+	c #F3B90F",
",+	c #5961F9",
"'+	c #6164FC",
")+	c #4158EE",
"!+	c #214DE0",
"~+	c #1247DA",
"{+	c #254EE2",
"]+	c #465AF1",
"^+	c #6365FE",
"/+	c #6264FD",
"(+	c #3A56EB",
"_+	c #CEB128",
":+	c #FFCD00",
"<+	c #FDCB00",
"[+	c #3F3200",
"}+	c #1A160F",
"|+	c #D0D0D0",
"1+	c #969696",
"2+	c #8C8C8C",
"3+	c #0E0B00",
"4+	c #1D1700",
"5+	c #1F1900",
"6+	c #9D820A",
"7+	c #FCD31A",
"8+	c #FDCB01",
"9+	c #F7BF0A",
"0+	c #F3B810",
"a+	c #7A7C72",
"b+	c #3D5BC7",
"c+	c #244EE1",
"d+	c #1D4BDE",
"e+	c #1B4BDE",
"f+	c #2B50E5",
"g+	c #2C51E5",
"h+	c #274FE3",
"i+	c #767F7A",
"j+	c #9C7D00",
"k+	c #936F00",
"l+	c #EDB917",
"m+	c #C88F15",
"n+	c #3C2A04",
"o+	c #9F9F9F",
"p+	c #C0C0C0",
"q+	c #141414",
"r+	c #EEB904",
"s+	c #F5C102",
"t+	c #FAC701",
"u+	c #FDCA00",
"v+	c #F8C208",
"w+	c #F4BB0D",
"x+	c #F95007",
"y+	c #FE381B",
"z+	c #F22A18",
"A+	c #D90804",
"B+	c #D30000",
"C+	c #D3040D",
"D+	c #B41C35",
"E+	c #BD4C38",
"F+	c #CC862C",
"G+	c #FBC605",
"H+	c #FDCA02",
"I+	c #FCC900",
"J+	c #CAA001",
"K+	c #3B2E04",
"L+	c #F0C641",
"M+	c #E5BC53",
"N+	c #6D4C08",
"O+	c #545454",
"P+	c #E3E3E3",
"Q+	c #BF9403",
"R+	c #F8C501",
"S+	c #FBC900",
"T+	c #FFCC00",
"U+	c #F4BB0E",
"V+	c #FF341E",
"W+	c #FF7745",
"X+	c #E45330",
"Y+	c #A90302",
"Z+	c #A70000",
"`+	c #B20000",
" @	c #CE0100",
".@	c #EF2909",
"+@	c #FE5900",
"@@	c #FEBF00",
"#@	c #FAC801",
"$@	c #F6C302",
"%@	c #89773D",
"&@	c #F7DF95",
"*@	c #D7AC4E",
"=@	c #9E6E0C",
"-@	c #F3F3F3",
";@	c #7F7F7F",
">@	c #5D5D5D",
",@	c #836503",
"'@	c #EFBB03",
")@	c #F5C202",
"!@	c #FCCA00",
"~@	c #D5C405",
"{@	c #90B510",
"]@	c #81B113",
"^@	c #60AA24",
"/@	c #5CA520",
"(@	c #73AB19",
"_@	c #99B114",
":@	c #F03810",
"<@	c #FF7845",
"[@	c #F86F3F",
"}@	c #CF3720",
"|@	c #B00D07",
"1@	c #C92E1B",
"2@	c #FB6339",
"3@	c #FE3C0C",
"4@	c #110F0A",
"5@	c #CABC8E",
"6@	c #FBF0CE",
"7@	c #D8B15E",
"8@	c #211A0B",
"9@	c #C6C6C6",
"0@	c #858585",
"a@	c #413E33",
"b@	c #B2B2B2",
"c@	c #B1A573",
"d@	c #76AD24",
"e@	c #48BB56",
"f@	c #65D081",
"g@	c #54BB69",
"h@	c #349139",
"i@	c #328E36",
"j@	c #319235",
"k@	c #79631A",
"l@	c #FF6138",
"m@	c #F97040",
"n@	c #DC4929",
"o@	c #BF2113",
"p@	c #AA0402",
"q@	c #B00C07",
"r@	c #C52817",
"s@	c #E14E2D",
"t@	c #FE3919",
"u@	c #B48D02",
"v@	c #100F0D",
"w@	c #BDB7A6",
"x@	c #FDFAEF",
"y@	c #ECD8B0",
"z@	c #C68F1D",
"A@	c #493305",
"B@	c #909090",
"C@	c #C9C9C9",
"D@	c #232323",
"E@	c #C2C2C2",
"F@	c #54A254",
"G@	c #64CF80",
"H@	c #52B866",
"I@	c #339038",
"J@	c #448C3A",
"K@	c #F3301B",
"L@	c #FD7643",
"M@	c #E85933",
"N@	c #CF361F",
"O@	c #BE1F12",
"P@	c #C12414",
"Q@	c #D53F24",
"R@	c #F06339",
"S@	c #F76D3F",
"T@	c #FA3C23",
"U@	c #FB7C00",
"V@	c #F7C302",
"W@	c #F1BD03",
"X@	c #856702",
"Y@	c #7F7E7B",
"Z@	c #FFFEFD",
"`@	c #FAF6E9",
" #	c #D8B25B",
".#	c #795509",
"+#	c #505050",
"@#	c #F6F6F6",
"##	c #242424",
"$#	c #9E9E9E",
"%#	c #7C9C7B",
"&#	c #44B850",
"*#	c #62CC7D",
"=#	c #52B764",
"-#	c #3E9D47",
";#	c #349039",
">#	c #729452",
",#	c #E2210B",
"'#	c #EF361F",
")#	c #D82D1A",
"!#	c #C72C19",
"~#	c #CB311C",
"{#	c #D52817",
"]#	c #E22314",
"^#	c #F02306",
"/#	c #FB8800",
"(#	c #F7C301",
"_#	c #1D1600",
":#	c #9E9D92",
"<#	c #FBF6CC",
"[#	c #D6CD91",
"}#	c #171717",
"|#	c #E8E8E8",
"1#	c #F7F7F7",
"2#	c #D2D2D2",
"3#	c #4B4B4B",
"4#	c #A6A6A6",
"5#	c #66AD64",
"6#	c #43B24F",
"7#	c #49AC58",
"8#	c #3F9F49",
"9#	c #35923B",
"0#	c #3C9C46",
"a#	c #3C9B45",
"b#	c #34913A",
"c#	c #56BC6B",
"d#	c #D59E05",
"e#	c #FE7F00",
"f#	c #FE6600",
"g#	c #FE6500",
"h#	c #FD7E00",
"i#	c #FCA300",
"j#	c #F9C601",
"k#	c #EDB804",
"l#	c #745902",
"m#	c #1F1E17",
"n#	c #9B9564",
"o#	c #1E1D11",
"p#	c #7C7C7C",
"q#	c #B4B4B4",
"r#	c #C1C1C1",
"s#	c #83A645",
"t#	c #359F24",
"u#	c #329836",
"v#	c #3D9C46",
"w#	c #4CAF5C",
"x#	c #5BC372",
"y#	c #62CD7D",
"z#	c #5CCA74",
"A#	c #90B60F",
"B#	c #F7C501",
"C#	c #906F03",
"D#	c #A8A8A8",
"E#	c #B8B8B8",
"F#	c #A8A5A1",
"G#	c #16120A",
"H#	c #B0943E",
"I#	c #B69A51",
"J#	c #BB9F50",
"K#	c #BEA34F",
"L#	c #DBB020",
"M#	c #F0BC03",
"N#	c #E6BD04",
"O#	c #A6B50D",
"P#	c #67A918",
"Q#	c #429F22",
"R#	c #32A136",
"S#	c #3FB249",
"T#	c #3FB549",
"U#	c #6EB221",
"V#	c #EDC502",
"W#	c #F7C401",
"X#	c #EFBA03",
"Y#	c #EBB503",
"Z#	c #735802",
"`#	c #332B20",
" $	c #696969",
".$	c #9F8D7B",
"+$	c #402001",
"@$	c #585000",
"#$	c #EAD200",
"$$	c #E6C502",
"%$	c #E5BF05",
"&$	c #E6B90A",
"*$	c #E9B507",
"=$	c #F4C002",
"-$	c #F6C202",
";$	c #F4C10B",
">$	c #F2C31C",
",$	c #EFBD13",
"'$	c #DDA901",
")$	c #846400",
"!$	c #A26E07",
"~$	c #825824",
"{$	c #6F5134",
"]$	c #7B440D",
"^$	c #733A02",
"/$	c #180700",
"($	c #494200",
"_$	c #766B00",
":$	c #B1A000",
"<$	c #DECB10",
"[$	c #EFDD2F",
"}$	c #F1E24F",
"|$	c #F2DE5A",
"1$	c #F4E06C",
"2$	c #F6E485",
"3$	c #F9E99D",
"4$	c #FBEDB6",
"5$	c #FBEEBF",
"6$	c #FBEDB9",
"7$	c #FAE9AD",
"8$	c #FAEBBC",
"9$	c #BAAA79",
"0$	c #4A3C0D",
"a$	c #2C2100",
"b$	c #C98F05",
"c$	c #995D0C",
"d$	c #7E4306",
"e$	c #793F06",
"f$	c #7B4006",
"g$	c #871C03",
"h$	c #4A0101",
"i$	c #2D2A0F",
"j$	c #3D391B",
"k$	c #3D3B23",
"l$	c #3E3C2B",
"m$	c #3E3D33",
"n$	c #3F3F3C",
"o$	c #3F3F3D",
"p$	c #1F1F1D",
"q$	c #D79D03",
"r$	c #A2660B",
"s$	c #894D09",
"t$	c #882603",
"u$	c #8E3207",
"v$	c #97430E",
"w$	c #C92F1B",
"x$	c #920E08",
"y$	c #1F0000",
"z$	c #E5A108",
"A$	c #BC6618",
"B$	c #8F530A",
"C$	c #B21E0D",
"D$	c #A70100",
"E$	c #A61505",
"F$	c #C12314",
"G$	c #E04E2D",
"H$	c #AF0B06",
"I$	c #140000",
"J$	c #875310",
"K$	c #EB5C35",
"L$	c #C6471F",
"M$	c #C82D1A",
"N$	c #B7160C",
"O$	c #AC0704",
"P$	c #B8180E",
"Q$	c #290000",
"R$	c #85351F",
"S$	c #CE4326",
"T$	c #CB321D",
"U$	c #BE2012",
"V$	c #B4120A",
"W$	c #AD0905",
"X$	c #880000",
"Y$	c #380603",
"Z$	c #990905",
"`$	c #8A0302",
" %	c #0B0000",
".%	c #4D0503",
"+%	c #0C0000",
"                                                                                                ",
"                                                                                                ",
"                                                                                                ",
"            . +                                                                                 ",
"            . @ #                                                                               ",
"            . @ $                                                                               ",
"            . % & .                                                                             ",
"            . * = -                                                                             ",
"            . ; > , .                                                                           ",
"            . ' ) = !                                                                           ",
"              ~ { ] ^                                                                           ",
"              / ( _ : .                                                                         ",
"              < [ } | 1                                                                         ",
"              ! 2 3 4 5                                                                         ",
"              . 6 2 ] : .                                                                       ",
"              . 7 8 _ 9 !                                                                       ",
"                0 a } | 0 . . . .                                                               ",
"                b c d e f g h i j k                                                             ",
"              l m n 4 ] o p q r s t                       . . . . . . . .                       ",
"          . u v w 4 x _ 9 y z A B C               . . D E F G H H H H I J K .                   ",
"        . L M N O P Q } | R S T U C . . . . . V W F H H H H H H H H H H X Y Z `                 ",
"        u  .N N ..+.@.d e #.$.%.&.*.=.-.;.>.,.'.).!.H H H H ~.{.].^./.(._.:.<.[.}.              ",
"      l |.1.N N N 2.3.4.] o 5.6.7.8.9.0.a.b.c.d.e.!.H H H f.g.h.i.j.j.j.j.k.l.m.n.o.            ",
"      p.q.N N N N r.s.t._ 9 y . u.v.w.x.y.b.,.'.).!.H H H z.A.B.C.j.j.j.j.D.E.F.G.H.I.          ",
"    . J.K.N N N N O L.M.} | R     . u.N.O.P.Q.<.R.S.H H H T.U.V.W.X.j.j.Y.Z.`. +.+++@+.         ",
"    . #+K.N N N N ..- $+d e #..       %+&+*+=+-+;+>+!.H H z.,+'+)+!+~+{+]+^+/+(+_+:+<+[+        ",
"    . |.q.N N N N N }+|+1+2+4.3+4+. 5+6+7+8+b.,.9+:.0+!.H ~.a+b+c+d+e+{+f+g+h+i+++++<+j+.       ",
"    . k+l+m+N N N N n+o+p+_ 9 q+r+s+t+u+++++G.=+v+d.w+X !.x+y+z+A+B+C+D+E+F+G+H+++++I+J+.       ",
"      K+L+M+N N N N N+O+P+} | 0 Q+B R+S+<+T+a.n.m.-+'.Y U+V+W+X+Y+Z+Z+Z+`+ @.@+@@@<+#@$@.       ",
"      . %@&@*@N N N =@b -@;@e >@,@'@)@t+!@++~@{@]@^@/@(@_@:@<@[@}@|@Z+Z+Z+Z+1@2@3@I+R+U .       ",
"        4@5@6@7@N N N 8@9@o+2+0@a@b@o+2 c@d@e@f@g@h@i@i@j@k@l@m@n@o@p@q@r@s@<@W+t@*.)@u@.       ",
"          v@w@x@y@z@N A@B@C@0@9 D@E@( 2 2 F@f@G@H@I@i@i@i@J@K@L@M@N@O@P@Q@R@S@T@U@V@W@X@        ",
"            . Y@Z@`@ #.#+#@#) | ##2 $#2 2 %#&#*#=#-#i@i@i@;#>#,#'#)#!#~#{#]#^#/#(#B T _#        ",
"              . y :#<#[#}#|#1#2#3#>@( 4#[ $#5#6#7#8#9#0#a#b#c#&#d#e#f#g#h#i#j#$@B k#l#.         ",
"                  . m#n#o#p#q#| > 0 4#b@9@r#q#s#t#u#v#w#x#y#*#z#A#<+!@S+t+B#s+W@T C#.           ",
"                      . . L.D#E#F#G#H#I#J#K#L#M#N#O#P#Q#R#S#T#U#V#t+j#W#)@B X#Y#Z#.             ",
"                        . `# $B@.$+$@$#$$$%$&$*$T '@B =$s+-$$@$@)@&.;$>$,$'$)$_#.               ",
"                        . !$~${$]$^$/$($_$:$<$[$}$|$1$2$3$4$5$6$7$8$9$%@0$. .                   ",
"                        a$b$c$d$e$f$g$h$. . . . i$j$k$l$m$n$0 o$p$. .                           ",
"                        u q$r$s$t$u$v$w$x$y$.                                                   ",
"                        l z$A$B$C$D$E$F$G$H$I$                                                  ",
"                        . J$K$L$M$N$O$O$P$H$Q$                                                  ",
"                          . R$S$T$U$V$W$Y+X$.                                                   ",
"                            . . . . Y$Z$`$ %                                                    ",
"                                    . .%+%                                                      ",
"                                                                                                ",
"                                                                                                ",
"                                                                                                "};
