/* XPM */
static char * gedit_xpm[] = {
"48 48 363 2",
"  	c None",
". 	c #BDBDBD",
"+ 	c #B8B8B8",
"@ 	c #D0D0D0",
"# 	c #FBFBFB",
"$ 	c #808080",
"% 	c #FFFFFF",
"& 	c #B9B9B9",
"* 	c #EDEDED",
"= 	c #606060",
"- 	c #090909",
"; 	c #C0C0C0",
"> 	c #212121",
", 	c #C4C4C4",
"' 	c #9C9C9C",
") 	c #A3A3A3",
"! 	c #B1B1B1",
"~ 	c #D9D9D9",
"{ 	c #B6B6B6",
"] 	c #CFCFCF",
"^ 	c #E8E8E8",
"/ 	c #040404",
"( 	c #9F9F9F",
"_ 	c #F4F4F4",
": 	c #C8C8C8",
"< 	c #6C6C6C",
"[ 	c #1E1E1E",
"} 	c #BBBBBB",
"| 	c #969696",
"1 	c #7D7D7D",
"2 	c #858585",
"3 	c #959595",
"4 	c #ABABAB",
"5 	c #545454",
"6 	c #797979",
"7 	c #D6D6D6",
"8 	c #FAFAFA",
"9 	c #B4B4B4",
"0 	c #DFDFDF",
"a 	c #5E5E5E",
"b 	c #020202",
"c 	c #A4A4A4",
"d 	c #F2F2F2",
"e 	c #8C8C8C",
"f 	c #878787",
"g 	c #464646",
"h 	c #C2C2C2",
"i 	c #9A9A9A",
"j 	c #767676",
"k 	c #C9C9C9",
"l 	c #191919",
"m 	c #939393",
"n 	c #676767",
"o 	c #919191",
"p 	c #717171",
"q 	c #6F6F6F",
"r 	c #2F2F2F",
"s 	c #E2E2E2",
"t 	c #DDDDDD",
"u 	c #E0E0E0",
"v 	c #DBDBDB",
"w 	c #000000",
"x 	c #A6A6A6",
"y 	c #7B7B7B",
"z 	c #424242",
"A 	c #BFBFBF",
"B 	c #A1A1A1",
"C 	c #727272",
"D 	c #B2B2B2",
"E 	c #F1F1F1",
"F 	c #E9E9E9",
"G 	c #D2D2D2",
"H 	c #989898",
"I 	c #7E7E7E",
"J 	c #686868",
"K 	c #2A2A2A",
"L 	c #AFAFAF",
"M 	c #CDCDCD",
"N 	c #CBCBCB",
"O 	c #D8D8D8",
"P 	c #8A8A8A",
"Q 	c #787878",
"R 	c #909090",
"S 	c #747474",
"T 	c #E4E4E4",
"U 	c #D4D4D4",
"V 	c #EBEBEB",
"W 	c #050505",
"X 	c #828282",
"Y 	c #656565",
"Z 	c #262626",
"` 	c #AAAAAA",
" .	c #3D3D3D",
"..	c #ADADAD",
"+.	c #898989",
"@.	c #E6E6E6",
"#.	c #EFEFEF",
"$.	c #2E2E2E",
"%.	c #9D9D9D",
"&.	c #393939",
"*.	c #C6C6C6",
"=.	c #444444",
"-.	c #0C0C0C",
";.	c #A8A8A8",
">.	c #F8F8F8",
",.	c #F6F6F6",
"'.	c #1B1B1B",
").	c #5B5B5B",
"!.	c #272727",
"~.	c #323232",
"{.	c #AF4C3E",
"].	c #DB8E82",
"^.	c #C46757",
"/.	c #55241B",
"(.	c #FDFDFD",
"_.	c #AD483B",
":.	c #CF523E",
"<.	c #E39A8E",
"[.	c #F3D5D0",
"}.	c #EBB9B1",
"|.	c #C46F62",
"1.	c #4F261D",
"2.	c #151515",
"3.	c #3C3C3C",
"4.	c #949494",
"5.	c #983829",
"6.	c #862F21",
"7.	c #DB7E70",
"8.	c #E4A49B",
"9.	c #F2D9D5",
"0.	c #DAD8D7",
"a.	c #ABA79E",
"b.	c #555043",
"c.	c #515151",
"d.	c #4B1911",
"e.	c #913120",
"f.	c #983525",
"g.	c #882F21",
"h.	c #C2675D",
"i.	c #BEAAA8",
"j.	c #E1E1E0",
"k.	c #E8DEC3",
"l.	c #D1B66F",
"m.	c #8F7D4D",
"n.	c #FEFEFE",
"o.	c #250C07",
"p.	c #4D180E",
"q.	c #611E12",
"r.	c #A23521",
"s.	c #876D68",
"t.	c #626262",
"u.	c #9E967F",
"v.	c #E8CE7A",
"w.	c #EFDDA2",
"x.	c #F6ECD3",
"y.	c #F1E2B7",
"z.	c #D9BF7A",
"A.	c #BBAA7D",
"B.	c #E5E5E5",
"C.	c #0A0302",
"D.	c #3F120A",
"E.	c #5E1E13",
"F.	c #724137",
"G.	c #6E6E6D",
"H.	c #B8831C",
"I.	c #9C7823",
"J.	c #CBAE57",
"K.	c #EBD07D",
"L.	c #F0DDA1",
"M.	c #F6EDD4",
"N.	c #F4E6C3",
"O.	c #E1CB8F",
"P.	c #E8D7A8",
"Q.	c #F3F3F3",
"R.	c #E1E1E1",
"S.	c #1F0E05",
"T.	c #4A281D",
"U.	c #414140",
"V.	c #8C5D0F",
"W.	c #C78819",
"X.	c #B8821C",
"Y.	c #9D7924",
"Z.	c #C9AC55",
"`.	c #EAD07D",
" +	c #EED897",
".+	c #F4E8C7",
"++	c #F5E9CA",
"@+	c #E9D294",
"#+	c #E3D2A4",
"$+	c #DCDCDC",
"%+	c #19150B",
"&+	c #614309",
"*+	c #7B530C",
"=+	c #906110",
"-+	c #C58618",
";+	c #B9851E",
">+	c #A07922",
",+	c #C3A757",
"'+	c #EBD180",
")+	c #EDD690",
"!+	c #F7EDD3",
"~+	c #F3E7C3",
"{+	c #E6CE8A",
"]+	c #D7C799",
"^+	c #D4D0C5",
"/+	c #585858",
"(+	c #422E06",
"_+	c #734F0C",
":+	c #84590E",
"<+	c #986712",
"[+	c #C58518",
"}+	c #B7801B",
"|+	c #A7822D",
"1+	c #C3A758",
"2+	c #EACF7D",
"3+	c #EFDB9D",
"4+	c #F9F2E1",
"5+	c #F6ECD0",
"6+	c #E8CD80",
"7+	c #D7C48C",
"8+	c #CFCBC0",
"9+	c #6A6A6A",
"0+	c #412E06",
"a+	c #6D4B0D",
"b+	c #875C0F",
"c+	c #9B6812",
"d+	c #C68619",
"e+	c #B8821D",
"f+	c #BDA04D",
"g+	c #EAD07E",
"h+	c #F0DEA3",
"i+	c #FAF4E7",
"j+	c #F8EFD9",
"k+	c #EBD28D",
"l+	c #D7C48F",
"m+	c #CCC8BD",
"n+	c #202020",
"o+	c #412F07",
"p+	c #735010",
"q+	c #885D10",
"r+	c #C6881A",
"s+	c #B8821E",
"t+	c #AB8834",
"u+	c #B99D4B",
"v+	c #EACF79",
"w+	c #F0DDA0",
"x+	c #F8F1DB",
"y+	c #F9F3E2",
"z+	c #EFDDA9",
"A+	c #E4D6AB",
"B+	c #E3DFD4",
"C+	c #D7D7D7",
"D+	c #8E8E8E",
"E+	c #535353",
"F+	c #565656",
"G+	c #412E07",
"H+	c #745210",
"I+	c #885D11",
"J+	c #A57115",
"K+	c #C7891C",
"L+	c #BB8924",
"M+	c #AB8B36",
"N+	c #BB9E4E",
"O+	c #E9CE79",
"P+	c #EEDA98",
"Q+	c #F7EED4",
"R+	c #FAF5E7",
"S+	c #EFDDA5",
"T+	c #D0BF8D",
"U+	c #958E79",
"V+	c #474747",
"W+	c #3E3E3E",
"X+	c #141414",
"Y+	c #402D07",
"Z+	c #6D4B0E",
"`+	c #8C6012",
" @	c #A67216",
".@	c #C98D1F",
"+@	c #BC8B26",
"@@	c #AD8C39",
"#@	c #BBA151",
"$@	c #EAD07B",
"%@	c #EED995",
"&@	c #F7EFD2",
"*@	c #F9F4E1",
"=@	c #EEDDA4",
"-@	c #C0A558",
";@	c #5D5029",
">@	c #402E08",
",@	c #6B4A0E",
"'@	c #885E12",
")@	c #C88B1D",
"!@	c #B98622",
"~@	c #AD8A38",
"{@	c #B99D4E",
"]@	c #EFDB9C",
"^@	c #F7EFD6",
"/@	c #F6EBCA",
"(@	c #EBD38A",
"_@	c #CFB068",
":@	c #030303",
"<@	c #423009",
"[@	c #6A490E",
"}@	c #8D6113",
"|@	c #B47D1A",
"1@	c #C88B1E",
"2@	c #CB9022",
"3@	c #AB8937",
"4@	c #BA9D4E",
"5@	c #EACE79",
"6@	c #EBD383",
"7@	c #F2E2B3",
"8@	c #E8D3AD",
"9@	c #DCBC95",
"0@	c #080808",
"a@	c #060606",
"b@	c #6E5013",
"c@	c #8F6315",
"d@	c #B47D1B",
"e@	c #C98C1F",
"f@	c #D09929",
"g@	c #AC8C3A",
"h@	c #BCA252",
"i@	c #E2C585",
"j@	c #E3D5C4",
"k@	c #F1E7DC",
"l@	c #E6D0B6",
"m@	c #221803",
"n@	c #573E0D",
"o@	c #B57E1C",
"p@	c #D4A02F",
"q@	c #D8A944",
"r@	c #B99569",
"s@	c #B5A592",
"t@	c #CBC5BF",
"u@	c #DED7CF",
"v@	c #E4D9C7",
"w@	c #100C03",
"x@	c #594114",
"y@	c #A17D2C",
"z@	c #BC9359",
"A@	c #A07E57",
"B@	c #8B6F4F",
"C@	c #988A79",
"D@	c #A89F95",
"E@	c #938B83",
"F@	c #6A5E4E",
"G@	c #1C150A",
"H@	c #836842",
"I@	c #A38058",
"J@	c #9B7C56",
"K@	c #90724F",
"L@	c #715E48",
"M@	c #3A342B",
"N@	c #221B13",
"O@	c #0C0905",
"P@	c #282013",
"Q@	c #3B301D",
"R@	c #15110A",
"S@	c #130F08",
"T@	c #0C0906",
"U@	c #16110B",
"V@	c #19140D",
"                                                                                                ",
"                                                                                                ",
"                                                . + @ #                                         ",
"                                                $     %                                         ",
"                                      & + @ * = -     ; %                                       ",
"                                      $ > , % '     ) ! ~                                       ",
"                            { + ] ^ = /     ( _ ' + : < @                                       ",
"                            $ [ } % |     1 2 ~ 3 4 5 6 7 8                                     ",
"                  9 { ] 0 a b     c d e f 1 g h i 9 j k 0 0 *                                   ",
"                  $ l 9 % m   n o $ ~ p q r 6 { ~ s s t u t v u                                 ",
"                a w     x d m 2 y z A B ' C D & ^ E F 0 0 t v s G                               ",
"                w   2 H I ~ q J K 6 L M v @ N 7 0 s u u 0 t ~ O ^ ;                             ",
"              6 P e I Q z A q R S ! } N O 0 s T T T u t U k ~ O 7 V                             ",
"          W X X $ p Y Z 6 ` : @ 7 ] 0 ^ ^ F F ^ T 0 O @ U O ~ 7 U G *                           ",
"           ...$ +.4 c S 4 ! t @.E V #.#.* V @.s O ~ v t t ~ O 7 U @ ] @.                        ",
"          $.2 %.' G v u & k G 0 * E E * F T 0 u s s 0 t v ~ O G ] @ ] M ^                       ",
"          w &.o 4 N ] U O 0 T F E #.V @.@.@.^ @.s u 0 t v 7 ] , *.@ M N k N                     ",
"            w =.' A u ^ T * #.* * V F V V F @.T s u 0 O @ *.M ] @ ] M N k @ ]                   ",
"              -.z ;.~ >.8 ,.,.E #.#.#.* F ^ @.T u ~ @ M G U U G @ ] M k : *.t ;.                ",
"                '.).;.* % >.,._ d E * V F ^ T t G 7 O ~ O 7 U G @ M k ; A *.h T                 ",
"                w !.C ;.# % ,._ E #.* V ^ t 7 v v t v ~ O 7 U @ : h { + h , h ; ^               ",
"                  w ~.I 9 # % d E #.V t 0 0 u u 0 t v ~ O G N , & h : : *., h ; ; s             ",
"          {.].^./.  w ~.| M % (.E * T T T @.s u 0 t v 7 M *.h k M N k : *.h . & ; ; @.          ",
"        _.:.<.[.}.|.1.2.3.4.U % >.* V F @.T s u t ~ @ *.N @ @ ] M N k *.. 9 B L ; ; : ]         ",
"        5.6.:.7.8.9.0.a.b.c.B ^ % d F ^ @.T u v G k G 7 U G @ ] M : A 9 ;.9 . ; ; ; : ~ s       ",
"        d.e.f.g.h.i.h j.k.l.m.' E n.V ^ @.0 @ U ~ v O 7 U G @ N h 9 ! . ; ; ; ; ; , #.d (.      ",
"      w o.p.q.r.s.t.u.v.w.x.y.z.A.E 8 B.T u 0 0 v ~ O 7 U M , 9 } h *., h ; ; k E E # % %       ",
"      w w C.D.E.F.G.H.I.J.K.L.M.N.O.P.Q.R.R.0 t v ~ O ] , & h : k : *., ; ] E E (.% % F B       ",
"        w w w S.T.U.V.W.X.Y.Z.`. +.+++@+#+O $+$+~ @ *.; : N M N k : , 0 E E # % (.G H I n       ",
"          w w w w %+&+*+=+-+;+>+,+'+)+!+~+{+]+^+N *.] @ @ ] M N : s d #.8 8 _ + I S /+          ",
"              w w w w (+_+:+<+[+}+|+1+2+3+4+5+6+7+8+@ @ @ ] N F E #.# * * L S 9+Z               ",
"                  w w w w 0+a+b+c+d+e+|+f+g+h+i+j+k+l+m+N * d * 8 @.@.x < = n+                  ",
"                      w w w w o+p+q+c+r+s+t+u+v+w+x+y+z+A+B+* C+N D+E+F+l                       ",
"                        w w w w w G+H+I+J+K+L+M+N+O+P+Q+R+S+T+U+V+W+X+                          ",
"                            w w w w w Y+Z+`+ @.@+@@@#@$@%@&@*@=@-@;@                            ",
"                                w w w w w >@,@'@ @)@!@~@{@g+]@^@/@(@_@                          ",
"                                  w w w w :@/ <@[@}@|@1@2@3@4@5@6@7@8@9@                        ",
"                                      w w w 0@a@/ >@b@c@d@e@f@g@h@i@j@k@l@                      ",
"                                        w w w w w w w m@n@c@o@p@q@r@s@t@u@v@                    ",
"                                              w w w w w w w@x@y@z@A@B@C@D@E@F@                  ",
"                                                    w w w w w G@H@I@J@K@L@M@N@O@                ",
"                                                          w w w w w P@Q@R@S@T@U@V@              ",
"                                                              w w w w w w w                     ",
"                                                                                                ",
"                                                                                                ",
"                                                                                                ",
"                                                                                                ",
"                                                                                                "};
